# xmcd
#
# Track frame offsets: 
#        150
#        6851
#        17211
#        27733
#        38889
#        52193
#        54337
#        66239
#        80680
#        93525
#        106607
#        113655
#        125819
#        129963
#        141295
#        150019
#        163175
#        173586
#        183008
#        195422
#        213471
#        226640
#        232801
#        246294
#        257147
#        268422
#        278466
#        289780
#        297649
#        308830
#        325948
#
# Disc length: 4490 seconds
#
# Revision: 0
# Processed by: cddbd v1.5.2PL0 Copyright (c) Steve Scherf et al.
# Submitted via: ExactAudioCopy v0.95b3
#
DISCID=b711881f
DTITLE=The Beatles  - Anthology Outtakes Vol. 1 [CD2]  FLAC
DYEAR=1900
DGENRE=
TTITLE0=Bad To Me
TTITLE1=P.S. I Love You
TTITLE2=Please Mister Postman
TTITLE3=Till There Was You
TTITLE4=Don't Bother Me
TTITLE5=Hold Me Tight
TTITLE6=Hold Me Tight
TTITLE7=She Loves You
TTITLE8=Twist And Shout
TTITLE9=Twist And Shout
TTITLE10=Long Tall Sally
TTITLE11=Money (That's What I Want)
TTITLE12=Crimble Medley
TTITLE13=If I Fell
TTITLE14=One And One Is Two
TTITLE15=I Want To Hold Your Hand
TTITLE16=This Boy
TTITLE17=Please Please Me
TTITLE18=A Hard Day's Night
TTITLE19=Medley Of Hits
TTITLE20=You Can't Do That
TTITLE21=I'm A Loser
TTITLE22=I'm A Loser
TTITLE23=Can't Buy Me Love
TTITLE24=If I Fell
TTITLE25=Boys
TTITLE26=Kansas City\\Hey-Hey-Hey-Hey!
TTITLE27=I Feel Fine
TTITLE28=I Feel Fine
TTITLE29=She's A Woman (tk 3a-4b)
TTITLE30=Honey Don't
EXTD=
EXTT0=
EXTT1=
EXTT2=
EXTT3=
EXTT4=
EXTT5=
EXTT6=
EXTT7=
EXTT8=
EXTT9=
EXTT10=
EXTT11=
EXTT12=
EXTT13=
EXTT14=
EXTT15=
EXTT16=
EXTT17=
EXTT18=
EXTT19=
EXTT20=
EXTT21=
EXTT22=
EXTT23=
EXTT24=
EXTT25=
EXTT26=
EXTT27=
EXTT28=
EXTT29=
EXTT30=
PLAYORDER=
